<svg width="300" height="21" viewBox="0 0 300 21" fill="none" xmlns="http://www.w3.org/2000/svg">
<path d="M113.459 20.9716V0.0516446C113.643 0.0516446 113.826 0.0253906 113.984 0.0253906C122.909 0.0253906 131.809 0.0253906 140.734 0.0253906C141.6 0.0253906 142.467 0.104141 143.307 0.235383C145.591 0.602861 146.509 1.57406 146.719 3.91016C146.798 4.77636 146.851 5.66881 146.851 6.53501C146.851 9.63232 146.851 12.7559 146.851 15.8532C146.851 16.5357 146.798 17.2443 146.641 17.9268C146.247 19.6592 144.987 20.7354 143.202 20.8666C142.283 20.9454 141.338 20.9979 140.419 20.9979C131.599 20.9979 122.804 20.9979 113.984 20.9979H113.433L113.459 20.9716ZM118.84 16.5356C119.05 16.5356 119.208 16.5619 119.365 16.5619C126.663 16.5619 133.935 16.5619 141.233 16.5619C141.705 16.5619 141.81 16.4044 141.81 15.9582C141.81 12.2309 141.81 8.50364 141.81 4.75011C141.81 4.27764 141.679 4.14639 141.207 4.14639C133.935 4.14639 126.663 4.14639 119.392 4.14639C119.208 4.14639 119.05 4.14639 118.84 4.14639V16.4832V16.5356Z" fill="#ffffff"/>
<path d="M183.236 0V4.226H182.527C174.205 4.226 165.883 4.226 157.562 4.226C157.124 4.226 156.905 4.43598 156.905 4.85595C156.905 5.77465 156.905 6.66709 156.905 7.58579C156.905 8.02326 157.115 8.242 157.535 8.242C162.576 8.242 167.616 8.242 172.656 8.242C173.496 8.242 173.391 8.18949 173.391 8.9507C173.391 10.0794 173.391 11.2081 173.391 12.3892H156.932C156.932 12.6255 156.905 12.8092 156.905 12.9667C156.905 13.9379 156.905 14.9091 156.905 15.8803C156.905 16.3177 157.115 16.5365 157.535 16.5365C162.129 16.5365 166.75 16.5365 171.344 16.5365C175.098 16.5365 178.878 16.5365 182.632 16.5365C183.104 16.5365 183.262 16.6415 183.236 17.1402C183.209 18.4001 183.236 19.6338 183.236 20.92H151.812V20.395C151.812 13.7804 151.812 7.1658 151.812 0.577448C151.812 0.131225 151.944 0 152.39 0C162.471 0 172.577 0 182.658 0H183.209H183.236Z" fill="#ffffff"/>
<path d="M69.0415 4.25357H68.3852C60.0635 4.25357 51.7418 4.25357 43.4201 4.25357C42.9651 4.25357 42.7376 4.48981 42.7376 4.96228C42.7376 5.88098 42.7376 6.82592 42.7376 7.74461C42.7376 8.19083 42.8688 8.29582 43.2888 8.29582C48.3554 8.29582 53.4219 8.29582 58.4884 8.29582H59.171V12.4431H42.7901V16.5903C43.0001 16.5903 43.2363 16.6166 43.4463 16.6166C51.7418 16.6166 60.0373 16.6166 68.359 16.6166C68.849 16.6166 69.094 16.8616 69.094 17.3515C69.094 18.559 69.094 19.7664 69.094 21.0001H37.6973C37.6973 20.8163 37.6973 20.6588 37.6973 20.4751C37.6973 13.8605 37.6973 7.2459 37.6973 0.657546C37.6973 0.158827 37.8548 0.0800781 38.3273 0.0800781C48.4079 0.0800781 58.4884 0.0800781 68.5427 0.0800781C68.989 0.0800781 69.1465 0.185075 69.1203 0.657546C69.094 1.70748 69.1203 2.73116 69.1203 3.78109C69.1203 3.93858 69.1203 4.09607 69.1203 4.33231L69.0415 4.25357Z" fill="#ffffff"/>
<path d="M27.7478 10.4731C28.6929 10.6831 29.5329 10.8406 30.373 11.0243C30.583 11.0768 30.793 11.1293 31.003 11.2081C32.158 11.5755 32.8668 12.2843 32.8406 13.5967C32.8406 16.0115 32.8406 18.4526 32.8406 20.92H27.564V12.5467H26.9603C19.9774 12.5467 12.9682 12.5467 5.98533 12.5467C5.51281 12.5467 5.35528 12.678 5.35528 13.1504C5.35528 15.539 5.35528 17.9014 5.35528 20.29C5.35528 20.5 5.35528 20.6837 5.35528 20.92H0C0 20.7625 0 20.605 0 20.4475C0 13.8329 0 7.19205 0 0.577448C0 0.104977 0.131241 0 0.577516 0C8.95174 0 17.3522 -1.44181e-05 25.7264 0.026234C27.0128 0.026234 28.3253 0.209988 29.6117 0.472472C31.1342 0.761205 32.0005 1.81113 32.3156 3.30729C32.6043 4.6722 32.6831 6.01088 32.4468 7.3758C32.263 8.39948 31.6593 9.13445 30.7405 9.55442C30.0054 9.8694 29.2441 10.0531 28.4828 10.2894C28.2728 10.3419 28.0628 10.3944 27.774 10.4731H27.7478ZM27.5115 8.32074V4.51471C27.5115 4.51471 27.3803 4.48848 27.3278 4.48848C20.1611 4.48848 12.9682 4.48848 5.80157 4.48848C5.4603 4.48848 5.38154 4.61971 5.38154 4.93469C5.38154 5.85339 5.38154 6.74584 5.38154 7.66453C5.38154 8.1195 5.60906 8.347 6.06408 8.347C13.0207 8.347 19.9774 8.347 26.934 8.347H27.5115V8.32074Z" fill="#ffffff"/>
<path d="M192.764 20.9462H187.409C187.409 20.7625 187.383 20.605 187.383 20.4475C187.383 13.8329 187.383 7.19205 187.383 0.577448C187.383 0.131225 187.514 0 187.96 0C196.361 0 204.761 -1.44181e-05 213.162 0.026234C214.501 0.026234 215.839 0.236222 217.126 0.498706C218.438 0.76119 219.252 1.67989 219.593 2.96606C219.987 4.43597 220.092 5.93213 219.777 7.42828C219.593 8.42572 218.99 9.16069 218.071 9.55442C217.362 9.8694 216.601 10.0531 215.866 10.2894C215.656 10.3419 215.446 10.3944 215.131 10.4731C216.076 10.6831 216.889 10.8406 217.703 11.0243C217.887 11.0768 218.097 11.1293 218.281 11.1818C219.488 11.5493 220.223 12.2842 220.223 13.6492C220.223 16.064 220.223 18.4789 220.223 20.92H214.947V20.3688C214.947 17.9539 214.947 15.5391 214.947 13.1242C214.947 12.678 214.816 12.5467 214.369 12.5467C207.36 12.5467 200.351 12.5467 193.342 12.5467C192.869 12.5467 192.764 12.7042 192.764 13.1504C192.764 15.539 192.764 17.9277 192.764 20.3425V20.9462ZM203.816 8.347C207.334 8.347 210.878 8.347 214.396 8.347C214.789 8.347 214.947 8.24199 214.947 7.82201C214.921 6.87707 214.947 5.90589 214.947 4.96095C214.947 4.61972 214.842 4.48848 214.501 4.48848C207.413 4.48848 200.325 4.48848 193.237 4.48848C192.843 4.48848 192.764 4.6197 192.764 4.98718C192.764 5.90588 192.791 6.79832 192.764 7.71702C192.764 8.21574 192.896 8.347 193.394 8.347C196.86 8.347 200.351 8.347 203.816 8.347Z" fill="#ffffff"/>
<path d="M78.571 4.46138V20.9454H73.1895V20.3942C73.1895 13.8058 73.1895 7.21746 73.1895 0.629113C73.1895 0.156641 73.3207 0.0253906 73.7932 0.0253906C76.0246 0.0253906 78.256 0.0253906 80.5136 0.0253906C80.9336 0.0253906 81.2224 0.156631 81.5637 0.392867C88.4678 5.72129 95.372 11.0497 102.276 16.3782C102.46 16.5094 102.644 16.6669 102.959 16.8769V0.0253906C103.247 0.0253906 103.431 0.0253906 103.589 0.0253906C104.954 0.0253906 106.345 0.0253906 107.71 0.0253906C108.13 0.0253906 108.34 0.244127 108.34 0.681601C108.34 1.78403 108.34 2.86022 108.34 3.96265V20.9716C108.156 20.9716 107.999 20.9979 107.841 20.9979C105.4 20.9979 102.932 20.9979 100.491 20.9979C100.228 20.9979 99.9397 20.8929 99.7297 20.7354C92.8518 15.4595 86.0002 10.1573 79.1223 4.85511C78.991 4.75012 78.8335 4.64511 78.6235 4.51387L78.571 4.46138Z" fill="#ffffff"/>
<path d="M246.818 12.4146H246.083C241.069 12.4146 236.029 12.4146 231.015 12.4146C230.542 12.4146 230.385 12.5196 230.411 13.0184C230.411 15.4595 230.411 17.8743 230.411 20.3154V20.9454H225.029V20.4204C225.029 13.8321 225.029 7.24372 225.029 0.655367C225.029 0.130399 225.187 0.0253906 225.686 0.0253906C235.661 0.0253906 245.637 0.0253906 255.612 0.0253906H256.216C256.216 0.52411 256.216 0.944096 256.216 1.39032C256.216 2.25652 256.216 3.14896 256.216 4.01516C256.216 4.40889 256.085 4.51387 255.691 4.51387C253.906 4.51387 252.147 4.51387 250.362 4.51387C243.93 4.51387 237.499 4.51387 231.067 4.51387C230.612 4.51387 230.385 4.74136 230.385 5.19633C230.385 6.03628 230.411 6.87623 230.385 7.71618C230.385 8.18865 230.542 8.29364 230.988 8.29364C235.976 8.29364 240.964 8.29364 245.952 8.29364C246.949 8.29364 246.792 8.2149 246.818 9.13359C246.818 10.2098 246.818 11.3122 246.818 12.4672V12.4146Z" fill="#ffffff"/>
<path d="M282.414 20.9454H277.032V20.3417C277.032 18.3468 277.032 16.3782 277.032 14.3833C277.032 13.8846 276.901 13.5696 276.507 13.2546C270.994 9.00235 265.508 4.69762 259.995 0.445375C259.864 0.340381 259.732 0.235384 259.496 0.0516446C259.785 0.0516446 259.942 0.0253906 260.1 0.0253906C262.2 0.0253906 264.274 0.0253906 266.374 0.0253906C266.847 0.0253906 267.214 0.156642 267.582 0.445375C271.598 3.59518 275.614 6.71874 279.631 9.86855C279.972 10.131 280.182 10.131 280.497 9.86855C284.461 6.69249 288.425 3.51644 292.389 0.340379C292.599 0.15664 292.94 0.0516446 293.229 0.0516446C295.251 0.0516446 297.272 0.0516446 299.293 0.0516446C299.451 0.0516446 299.608 0.0516503 299.923 0.0778987C299.582 0.366631 299.346 0.55037 299.11 0.734109C293.676 4.9601 288.241 9.1861 282.807 13.4121C282.519 13.6483 282.387 13.8583 282.387 14.252C282.387 16.2732 282.387 18.3205 282.387 20.3417V20.9979L282.414 20.9454Z" fill="#ffffff"/>
<path d="M230.357 20.9462H225.002V20.395C225.002 13.8066 225.002 7.21828 225.002 0.629926C225.002 0.157454 225.107 -4.47873e-05 225.606 0.0262036C227.05 0.052452 228.493 0.0262036 229.937 0.0262036C230.252 0.0262036 230.41 0.07871 230.41 0.446188C230.41 7.19203 230.41 13.9379 230.41 20.6575C230.41 20.7362 230.41 20.8149 230.384 20.9462H230.357Z" fill="#ffffff"/>
</svg>
